<svg xmlns="http://www.w3.org/2000/svg" xmlns:xlink="http://www.w3.org/1999/xlink" width="500" zoomAndPan="magnify" viewBox="0 0 375 374.999991" height="500" preserveAspectRatio="xMidYMid meet" version="1.0"><defs><g/><clipPath id="8e18b73495"><path d="M 147.152344 109.28125 L 246 109.28125 L 246 205.28125 L 147.152344 205.28125 Z M 147.152344 109.28125 " clip-rule="nonzero"/></clipPath></defs><rect x="-37.5" width="450" fill="#ffffff" y="-37.499999" height="449.999989" fill-opacity="1"/><rect x="-37.5" width="450" fill="#ffffff" y="-37.499999" height="449.999989" fill-opacity="1"/><g clip-path="url(#8e18b73495)"><path fill="#ff6100" d="M 188.589844 194.195312 L 167.246094 148.644531 L 188.59375 169.988281 L 226.144531 132.4375 C 219.015625 130.550781 203.210938 124.875 188.589844 109.367188 C 168.855469 130.578125 147.160156 133.289062 147.160156 133.289062 C 147.160156 162.894531 162.953125 190.25 188.589844 205.050781 C 208.777344 193.394531 222.859375 173.957031 227.933594 151.769531 L 245.972656 112.609375 L 188.589844 194.195312 " fill-opacity="1" fill-rule="nonzero"/></g><g fill="#201d1d" fill-opacity="1"><g transform="translate(82.027381, 236.097304)"><g><path d="M 12.25 -5.640625 C 12.3125 -5.835938 12.460938 -5.9375 12.703125 -5.9375 L 15.984375 -5.9375 C 16.128906 -5.9375 16.226562 -5.875 16.28125 -5.75 C 16.332031 -5.632812 16.34375 -5.507812 16.3125 -5.375 C 16.050781 -4.25 15.566406 -3.265625 14.859375 -2.421875 C 14.148438 -1.578125 13.285156 -0.921875 12.265625 -0.453125 C 11.253906 0.00390625 10.132812 0.234375 8.90625 0.234375 C 7.84375 0.234375 6.835938 0.0390625 5.890625 -0.34375 C 4.941406 -0.738281 4.101562 -1.285156 3.375 -1.984375 C 2.644531 -2.691406 2.070312 -3.5 1.65625 -4.40625 C 1.25 -5.320312 1.046875 -6.304688 1.046875 -7.359375 C 1.046875 -8.410156 1.25 -9.390625 1.65625 -10.296875 C 2.070312 -11.210938 2.644531 -12.015625 3.375 -12.703125 C 4.101562 -13.398438 4.941406 -13.945312 5.890625 -14.34375 C 6.835938 -14.738281 7.84375 -14.9375 8.90625 -14.9375 C 10.125 -14.9375 11.234375 -14.707031 12.234375 -14.25 C 13.242188 -13.789062 14.101562 -13.148438 14.8125 -12.328125 C 15.519531 -11.503906 16.015625 -10.535156 16.296875 -9.421875 C 16.316406 -9.273438 16.304688 -9.144531 16.265625 -9.03125 C 16.222656 -8.925781 16.128906 -8.875 15.984375 -8.875 L 12.671875 -8.875 C 12.535156 -8.875 12.429688 -8.90625 12.359375 -8.96875 C 12.296875 -9.03125 12.25 -9.085938 12.21875 -9.140625 C 11.925781 -9.859375 11.5 -10.382812 10.9375 -10.71875 C 10.382812 -11.0625 9.707031 -11.234375 8.90625 -11.234375 C 8.207031 -11.234375 7.585938 -11.0625 7.046875 -10.71875 C 6.503906 -10.382812 6.078125 -9.921875 5.765625 -9.328125 C 5.460938 -8.742188 5.3125 -8.085938 5.3125 -7.359375 C 5.3125 -6.628906 5.460938 -5.972656 5.765625 -5.390625 C 6.078125 -4.804688 6.503906 -4.34375 7.046875 -4 C 7.585938 -3.65625 8.207031 -3.484375 8.90625 -3.484375 C 9.71875 -3.484375 10.40625 -3.660156 10.96875 -4.015625 C 11.539062 -4.367188 11.96875 -4.910156 12.25 -5.640625 Z M 12.25 -5.640625 "/></g></g></g><g fill="#201d1d" fill-opacity="1"><g transform="translate(106.454202, 236.097304)"><g><path d="M 13.671875 -14.671875 C 13.828125 -14.671875 13.953125 -14.617188 14.046875 -14.515625 C 14.148438 -14.410156 14.203125 -14.289062 14.203125 -14.15625 L 14.203125 -0.53125 C 14.203125 -0.382812 14.148438 -0.257812 14.046875 -0.15625 C 13.953125 -0.0507812 13.828125 0 13.671875 0 L 10.40625 0 C 10.257812 0 10.132812 -0.0507812 10.03125 -0.15625 C 9.925781 -0.257812 9.875 -0.382812 9.875 -0.53125 L 9.875 -5.53125 L 5.375 -5.53125 L 5.375 -0.53125 C 5.375 -0.382812 5.320312 -0.257812 5.21875 -0.15625 C 5.125 -0.0507812 5 0 4.84375 0 L 1.578125 0 C 1.429688 0 1.304688 -0.0507812 1.203125 -0.15625 C 1.097656 -0.257812 1.046875 -0.382812 1.046875 -0.53125 L 1.046875 -14.15625 C 1.046875 -14.3125 1.097656 -14.4375 1.203125 -14.53125 C 1.304688 -14.625 1.429688 -14.671875 1.578125 -14.671875 L 4.84375 -14.671875 C 5 -14.671875 5.125 -14.617188 5.21875 -14.515625 C 5.320312 -14.410156 5.375 -14.289062 5.375 -14.15625 L 5.375 -9.140625 L 9.875 -9.140625 L 9.875 -14.15625 C 9.875 -14.3125 9.925781 -14.4375 10.03125 -14.53125 C 10.132812 -14.625 10.257812 -14.671875 10.40625 -14.671875 Z M 13.671875 -14.671875 "/></g></g></g><g fill="#201d1d" fill-opacity="1"><g transform="translate(128.742613, 236.097304)"><g><path d="M 11.21875 -3.609375 C 11.375 -3.609375 11.5 -3.554688 11.59375 -3.453125 C 11.695312 -3.359375 11.75 -3.234375 11.75 -3.078125 L 11.75 -0.53125 C 11.75 -0.382812 11.695312 -0.257812 11.59375 -0.15625 C 11.5 -0.0507812 11.375 0 11.21875 0 L 1.578125 0 C 1.429688 0 1.304688 -0.0507812 1.203125 -0.15625 C 1.097656 -0.257812 1.046875 -0.382812 1.046875 -0.53125 L 1.046875 -14.15625 C 1.046875 -14.3125 1.097656 -14.4375 1.203125 -14.53125 C 1.304688 -14.625 1.429688 -14.671875 1.578125 -14.671875 L 11.15625 -14.671875 C 11.289062 -14.671875 11.410156 -14.625 11.515625 -14.53125 C 11.617188 -14.4375 11.671875 -14.3125 11.671875 -14.15625 L 11.671875 -11.59375 C 11.671875 -11.457031 11.617188 -11.335938 11.515625 -11.234375 C 11.410156 -11.128906 11.289062 -11.078125 11.15625 -11.078125 L 5.375 -11.078125 L 5.375 -9.140625 L 10.0625 -9.140625 C 10.207031 -9.140625 10.332031 -9.085938 10.4375 -8.984375 C 10.539062 -8.890625 10.59375 -8.769531 10.59375 -8.625 L 10.59375 -6.0625 C 10.59375 -5.914062 10.539062 -5.789062 10.4375 -5.6875 C 10.332031 -5.582031 10.207031 -5.53125 10.0625 -5.53125 L 5.375 -5.53125 L 5.375 -3.609375 Z M 11.21875 -3.609375 "/></g></g></g><g fill="#201d1d" fill-opacity="1"><g transform="translate(148.578136, 236.097304)"><g><path d="M 12.25 -5.640625 C 12.3125 -5.835938 12.460938 -5.9375 12.703125 -5.9375 L 15.984375 -5.9375 C 16.128906 -5.9375 16.226562 -5.875 16.28125 -5.75 C 16.332031 -5.632812 16.34375 -5.507812 16.3125 -5.375 C 16.050781 -4.25 15.566406 -3.265625 14.859375 -2.421875 C 14.148438 -1.578125 13.285156 -0.921875 12.265625 -0.453125 C 11.253906 0.00390625 10.132812 0.234375 8.90625 0.234375 C 7.84375 0.234375 6.835938 0.0390625 5.890625 -0.34375 C 4.941406 -0.738281 4.101562 -1.285156 3.375 -1.984375 C 2.644531 -2.691406 2.070312 -3.5 1.65625 -4.40625 C 1.25 -5.320312 1.046875 -6.304688 1.046875 -7.359375 C 1.046875 -8.410156 1.25 -9.390625 1.65625 -10.296875 C 2.070312 -11.210938 2.644531 -12.015625 3.375 -12.703125 C 4.101562 -13.398438 4.941406 -13.945312 5.890625 -14.34375 C 6.835938 -14.738281 7.84375 -14.9375 8.90625 -14.9375 C 10.125 -14.9375 11.234375 -14.707031 12.234375 -14.25 C 13.242188 -13.789062 14.101562 -13.148438 14.8125 -12.328125 C 15.519531 -11.503906 16.015625 -10.535156 16.296875 -9.421875 C 16.316406 -9.273438 16.304688 -9.144531 16.265625 -9.03125 C 16.222656 -8.925781 16.128906 -8.875 15.984375 -8.875 L 12.671875 -8.875 C 12.535156 -8.875 12.429688 -8.90625 12.359375 -8.96875 C 12.296875 -9.03125 12.25 -9.085938 12.21875 -9.140625 C 11.925781 -9.859375 11.5 -10.382812 10.9375 -10.71875 C 10.382812 -11.0625 9.707031 -11.234375 8.90625 -11.234375 C 8.207031 -11.234375 7.585938 -11.0625 7.046875 -10.71875 C 6.503906 -10.382812 6.078125 -9.921875 5.765625 -9.328125 C 5.460938 -8.742188 5.3125 -8.085938 5.3125 -7.359375 C 5.3125 -6.628906 5.460938 -5.972656 5.765625 -5.390625 C 6.078125 -4.804688 6.503906 -4.34375 7.046875 -4 C 7.585938 -3.65625 8.207031 -3.484375 8.90625 -3.484375 C 9.71875 -3.484375 10.40625 -3.660156 10.96875 -4.015625 C 11.539062 -4.367188 11.96875 -4.910156 12.25 -5.640625 Z M 12.25 -5.640625 "/></g></g></g><g fill="#201d1d" fill-opacity="1"><g transform="translate(173.004953, 236.097304)"><g><path d="M 14.84375 -0.734375 C 14.96875 -0.523438 14.976562 -0.347656 14.875 -0.203125 C 14.78125 -0.0664062 14.644531 0 14.46875 0 L 10.796875 0 C 10.578125 0 10.382812 -0.0625 10.21875 -0.1875 C 10.0625 -0.320312 9.898438 -0.507812 9.734375 -0.75 C 9.671875 -0.832031 9.53125 -1.035156 9.3125 -1.359375 C 9.101562 -1.679688 8.84375 -2.078125 8.53125 -2.546875 C 8.226562 -3.023438 7.898438 -3.523438 7.546875 -4.046875 C 7.203125 -4.566406 6.875 -5.0625 6.5625 -5.53125 L 5.390625 -5.53125 L 5.390625 -0.53125 C 5.390625 -0.382812 5.335938 -0.257812 5.234375 -0.15625 C 5.128906 -0.0507812 5.003906 0 4.859375 0 L 1.578125 0 C 1.429688 0 1.304688 -0.0507812 1.203125 -0.15625 C 1.097656 -0.257812 1.046875 -0.382812 1.046875 -0.53125 L 1.046875 -14.15625 C 1.046875 -14.3125 1.097656 -14.4375 1.203125 -14.53125 C 1.304688 -14.625 1.429688 -14.671875 1.578125 -14.671875 L 4.859375 -14.671875 C 5.003906 -14.671875 5.128906 -14.625 5.234375 -14.53125 C 5.335938 -14.4375 5.390625 -14.3125 5.390625 -14.15625 L 5.390625 -9.140625 L 6.5 -9.140625 C 6.78125 -9.671875 7.0625 -10.21875 7.34375 -10.78125 C 7.632812 -11.351562 7.90625 -11.882812 8.15625 -12.375 C 8.40625 -12.875 8.613281 -13.285156 8.78125 -13.609375 C 8.945312 -13.929688 9.039062 -14.113281 9.0625 -14.15625 C 9.257812 -14.5 9.523438 -14.671875 9.859375 -14.671875 L 13.609375 -14.671875 C 14.191406 -14.671875 14.359375 -14.445312 14.109375 -14 C 14.078125 -13.945312 13.96875 -13.734375 13.78125 -13.359375 C 13.59375 -12.984375 13.359375 -12.519531 13.078125 -11.96875 C 12.804688 -11.414062 12.507812 -10.832031 12.1875 -10.21875 C 11.875 -9.601562 11.578125 -9.023438 11.296875 -8.484375 C 11.015625 -7.941406 10.785156 -7.503906 10.609375 -7.171875 C 10.773438 -6.921875 11.019531 -6.550781 11.34375 -6.0625 C 11.675781 -5.570312 12.03125 -5.039062 12.40625 -4.46875 C 12.789062 -3.894531 13.160156 -3.332031 13.515625 -2.78125 C 13.867188 -2.238281 14.164062 -1.78125 14.40625 -1.40625 C 14.65625 -1.03125 14.800781 -0.804688 14.84375 -0.734375 Z M 14.84375 -0.734375 "/></g></g></g><g fill="#201d1d" fill-opacity="1"><g transform="translate(196.048088, 236.097304)"><g><path d="M 6.828125 -14.671875 C 8.285156 -14.671875 9.515625 -14.425781 10.515625 -13.9375 C 11.523438 -13.445312 12.289062 -12.785156 12.8125 -11.953125 C 13.332031 -11.128906 13.59375 -10.191406 13.59375 -9.140625 C 13.59375 -8.398438 13.472656 -7.679688 13.234375 -6.984375 C 12.992188 -6.285156 12.609375 -5.660156 12.078125 -5.109375 C 11.546875 -4.554688 10.847656 -4.117188 9.984375 -3.796875 C 9.128906 -3.472656 8.078125 -3.3125 6.828125 -3.3125 L 5.390625 -3.3125 L 5.390625 -0.53125 C 5.390625 -0.382812 5.335938 -0.257812 5.234375 -0.15625 C 5.128906 -0.0507812 5.003906 0 4.859375 0 L 1.578125 0 C 1.429688 0 1.304688 -0.0507812 1.203125 -0.15625 C 1.097656 -0.257812 1.046875 -0.382812 1.046875 -0.53125 L 1.046875 -14.15625 C 1.046875 -14.289062 1.097656 -14.410156 1.203125 -14.515625 C 1.304688 -14.617188 1.429688 -14.671875 1.578125 -14.671875 Z M 6.5625 -6.921875 C 7.132812 -6.921875 7.59375 -7 7.9375 -7.15625 C 8.28125 -7.320312 8.535156 -7.523438 8.703125 -7.765625 C 8.878906 -8.015625 8.992188 -8.253906 9.046875 -8.484375 C 9.109375 -8.722656 9.140625 -8.925781 9.140625 -9.09375 C 9.140625 -9.320312 9.070312 -9.585938 8.9375 -9.890625 C 8.8125 -10.203125 8.5625 -10.476562 8.1875 -10.71875 C 7.8125 -10.957031 7.253906 -11.078125 6.515625 -11.078125 L 5.390625 -11.078125 L 5.390625 -6.921875 Z M 6.5625 -6.921875 "/></g></g></g><g fill="#201d1d" fill-opacity="1"><g transform="translate(217.728507, 236.097304)"><g><path d="M 8.90625 -14.9375 C 9.96875 -14.9375 10.972656 -14.738281 11.921875 -14.34375 C 12.878906 -13.945312 13.71875 -13.398438 14.4375 -12.703125 C 15.164062 -12.003906 15.738281 -11.195312 16.15625 -10.28125 C 16.570312 -9.363281 16.78125 -8.382812 16.78125 -7.34375 C 16.78125 -6.289062 16.570312 -5.304688 16.15625 -4.390625 C 15.738281 -3.472656 15.164062 -2.664062 14.4375 -1.96875 C 13.71875 -1.269531 12.878906 -0.722656 11.921875 -0.328125 C 10.972656 0.0546875 9.96875 0.25 8.90625 0.25 C 7.84375 0.25 6.835938 0.0546875 5.890625 -0.328125 C 4.941406 -0.722656 4.101562 -1.269531 3.375 -1.96875 C 2.644531 -2.664062 2.070312 -3.472656 1.65625 -4.390625 C 1.25 -5.304688 1.046875 -6.289062 1.046875 -7.34375 C 1.046875 -8.382812 1.25 -9.363281 1.65625 -10.28125 C 2.070312 -11.195312 2.644531 -12.003906 3.375 -12.703125 C 4.101562 -13.398438 4.941406 -13.945312 5.890625 -14.34375 C 6.835938 -14.738281 7.84375 -14.9375 8.90625 -14.9375 Z M 8.90625 -3.453125 C 9.59375 -3.453125 10.210938 -3.628906 10.765625 -3.984375 C 11.328125 -4.335938 11.773438 -4.804688 12.109375 -5.390625 C 12.453125 -5.972656 12.625 -6.625 12.625 -7.34375 C 12.625 -8.050781 12.453125 -8.695312 12.109375 -9.28125 C 11.773438 -9.863281 11.328125 -10.328125 10.765625 -10.671875 C 10.210938 -11.023438 9.59375 -11.203125 8.90625 -11.203125 C 8.226562 -11.203125 7.601562 -11.023438 7.03125 -10.671875 C 6.46875 -10.328125 6.015625 -9.863281 5.671875 -9.28125 C 5.335938 -8.695312 5.171875 -8.050781 5.171875 -7.34375 C 5.171875 -6.625 5.335938 -5.972656 5.671875 -5.390625 C 6.015625 -4.804688 6.46875 -4.335938 7.03125 -3.984375 C 7.601562 -3.628906 8.226562 -3.453125 8.90625 -3.453125 Z M 8.90625 -3.453125 "/></g></g></g><g fill="#201d1d" fill-opacity="1"><g transform="translate(242.59559, 236.097304)"><g><path d="M 4.84375 -14.671875 C 5 -14.671875 5.125 -14.625 5.21875 -14.53125 C 5.320312 -14.4375 5.375 -14.3125 5.375 -14.15625 L 5.375 -0.53125 C 5.375 -0.382812 5.320312 -0.257812 5.21875 -0.15625 C 5.125 -0.0507812 5 0 4.84375 0 L 1.578125 0 C 1.429688 0 1.304688 -0.0507812 1.203125 -0.15625 C 1.097656 -0.257812 1.046875 -0.382812 1.046875 -0.53125 L 1.046875 -14.15625 C 1.046875 -14.3125 1.097656 -14.4375 1.203125 -14.53125 C 1.304688 -14.625 1.429688 -14.671875 1.578125 -14.671875 Z M 4.84375 -14.671875 "/></g></g></g><g fill="#201d1d" fill-opacity="1"><g transform="translate(256.057789, 236.097304)"><g><path d="M 13.484375 0 L 11.15625 0 C 10.84375 0 10.613281 -0.0390625 10.46875 -0.125 C 10.320312 -0.21875 10.191406 -0.351562 10.078125 -0.53125 L 5.390625 -7.59375 L 5.390625 -0.53125 C 5.390625 -0.382812 5.335938 -0.257812 5.234375 -0.15625 C 5.128906 -0.0507812 5.003906 0 4.859375 0 L 1.578125 0 C 1.429688 0 1.304688 -0.0507812 1.203125 -0.15625 C 1.097656 -0.257812 1.046875 -0.382812 1.046875 -0.53125 L 1.046875 -14.15625 C 1.046875 -14.3125 1.097656 -14.4375 1.203125 -14.53125 C 1.304688 -14.625 1.429688 -14.671875 1.578125 -14.671875 L 3.984375 -14.671875 C 4.234375 -14.671875 4.4375 -14.617188 4.59375 -14.515625 C 4.75 -14.410156 4.9375 -14.210938 5.15625 -13.921875 C 5.226562 -13.828125 5.390625 -13.597656 5.640625 -13.234375 C 5.890625 -12.867188 6.1875 -12.429688 6.53125 -11.921875 C 6.875 -11.421875 7.226562 -10.894531 7.59375 -10.34375 C 7.957031 -9.789062 8.296875 -9.273438 8.609375 -8.796875 C 8.929688 -8.328125 9.191406 -7.945312 9.390625 -7.65625 C 9.585938 -7.363281 9.6875 -7.21875 9.6875 -7.21875 L 9.6875 -14.15625 C 9.6875 -14.3125 9.738281 -14.4375 9.84375 -14.53125 C 9.945312 -14.625 10.070312 -14.671875 10.21875 -14.671875 L 13.484375 -14.671875 C 13.640625 -14.671875 13.765625 -14.625 13.859375 -14.53125 C 13.953125 -14.4375 14 -14.3125 14 -14.15625 L 14 -0.53125 C 14 -0.382812 13.953125 -0.257812 13.859375 -0.15625 C 13.765625 -0.0507812 13.640625 0 13.484375 0 Z M 13.484375 0 "/></g></g></g><g fill="#201d1d" fill-opacity="1"><g transform="translate(278.157519, 236.097304)"><g><path d="M 13.234375 -14.671875 C 13.390625 -14.671875 13.515625 -14.617188 13.609375 -14.515625 C 13.703125 -14.410156 13.75 -14.289062 13.75 -14.15625 L 13.75 -11.59375 C 13.75 -11.457031 13.703125 -11.335938 13.609375 -11.234375 C 13.515625 -11.128906 13.390625 -11.078125 13.234375 -11.078125 L 9.5625 -11.078125 L 9.5625 -0.53125 C 9.5625 -0.382812 9.507812 -0.257812 9.40625 -0.15625 C 9.3125 -0.0507812 9.1875 0 9.03125 0 L 5.765625 0 C 5.628906 0 5.503906 -0.0507812 5.390625 -0.15625 C 5.285156 -0.257812 5.234375 -0.382812 5.234375 -0.53125 L 5.234375 -11.078125 L 1.578125 -11.078125 C 1.429688 -11.078125 1.304688 -11.128906 1.203125 -11.234375 C 1.097656 -11.335938 1.046875 -11.457031 1.046875 -11.59375 L 1.046875 -14.15625 C 1.046875 -14.289062 1.097656 -14.410156 1.203125 -14.515625 C 1.304688 -14.617188 1.429688 -14.671875 1.578125 -14.671875 Z M 13.234375 -14.671875 "/></g></g></g><g fill="#201d1d" fill-opacity="1"><g transform="translate(90.86641, 251.549998)"><g><path d="M 3.09375 0.078125 C 2.5625 0.078125 2.050781 0 1.5625 -0.15625 C 1.070312 -0.320312 0.6875 -0.535156 0.40625 -0.796875 L 0.78125 -1.578125 C 1.050781 -1.335938 1.394531 -1.140625 1.8125 -0.984375 C 2.226562 -0.835938 2.65625 -0.765625 3.09375 -0.765625 C 3.664062 -0.765625 4.09375 -0.863281 4.375 -1.0625 C 4.664062 -1.257812 4.8125 -1.519531 4.8125 -1.84375 C 4.8125 -2.082031 4.734375 -2.273438 4.578125 -2.421875 C 4.421875 -2.578125 4.226562 -2.695312 4 -2.78125 C 3.769531 -2.863281 3.445312 -2.953125 3.03125 -3.046875 C 2.5 -3.171875 2.070312 -3.296875 1.75 -3.421875 C 1.425781 -3.554688 1.148438 -3.753906 0.921875 -4.015625 C 0.691406 -4.273438 0.578125 -4.628906 0.578125 -5.078125 C 0.578125 -5.453125 0.675781 -5.789062 0.875 -6.09375 C 1.070312 -6.394531 1.367188 -6.632812 1.765625 -6.8125 C 2.171875 -6.988281 2.671875 -7.078125 3.265625 -7.078125 C 3.671875 -7.078125 4.070312 -7.023438 4.46875 -6.921875 C 4.875 -6.816406 5.222656 -6.660156 5.515625 -6.453125 L 5.1875 -5.65625 C 4.882812 -5.84375 4.566406 -5.984375 4.234375 -6.078125 C 3.898438 -6.179688 3.578125 -6.234375 3.265625 -6.234375 C 2.691406 -6.234375 2.265625 -6.128906 1.984375 -5.921875 C 1.703125 -5.710938 1.5625 -5.445312 1.5625 -5.125 C 1.5625 -4.882812 1.640625 -4.6875 1.796875 -4.53125 C 1.960938 -4.382812 2.160156 -4.269531 2.390625 -4.1875 C 2.628906 -4.101562 2.953125 -4.015625 3.359375 -3.921875 C 3.890625 -3.796875 4.3125 -3.664062 4.625 -3.53125 C 4.945312 -3.40625 5.222656 -3.210938 5.453125 -2.953125 C 5.679688 -2.691406 5.796875 -2.34375 5.796875 -1.90625 C 5.796875 -1.539062 5.695312 -1.207031 5.5 -0.90625 C 5.300781 -0.601562 5 -0.363281 4.59375 -0.1875 C 4.1875 -0.0078125 3.6875 0.078125 3.09375 0.078125 Z M 3.09375 0.078125 "/></g></g></g><g fill="#201d1d" fill-opacity="1"><g transform="translate(98.173965, 251.549998)"><g><path d="M 5.515625 -1.75 L 1.796875 -1.75 L 1.015625 0 L -0.015625 0 L 3.15625 -7 L 4.15625 -7 L 7.328125 0 L 6.28125 0 Z M 5.15625 -2.546875 L 3.65625 -5.984375 L 2.140625 -2.546875 Z M 5.15625 -2.546875 "/></g></g></g><g fill="#201d1d" fill-opacity="1"><g transform="translate(106.591081, 251.549998)"><g><path d="M 2.046875 -6.125 L 2.046875 -3.6875 L 5.5625 -3.6875 L 5.5625 -2.828125 L 2.046875 -2.828125 L 2.046875 0 L 1.046875 0 L 1.046875 -7 L 5.984375 -7 L 5.984375 -6.125 Z M 2.046875 -6.125 "/></g></g></g><g fill="#201d1d" fill-opacity="1"><g transform="translate(114.038585, 251.549998)"><g><path d="M 6.125 -0.875 L 6.125 0 L 1.046875 0 L 1.046875 -7 L 5.984375 -7 L 5.984375 -6.125 L 2.046875 -6.125 L 2.046875 -3.984375 L 5.5625 -3.984375 L 5.5625 -3.125 L 2.046875 -3.125 L 2.046875 -0.875 Z M 6.125 -0.875 "/></g></g></g><g fill="#201d1d" fill-opacity="1"><g transform="translate(121.835948, 251.549998)"><g/></g></g><g fill="#201d1d" fill-opacity="1"><g transform="translate(125.624892, 251.549998)"><g><path d="M 5.734375 0 L 4.21875 -2.15625 C 4.03125 -2.132812 3.882812 -2.125 3.78125 -2.125 L 2.046875 -2.125 L 2.046875 0 L 1.046875 0 L 1.046875 -7 L 3.78125 -7 C 4.6875 -7 5.398438 -6.78125 5.921875 -6.34375 C 6.441406 -5.914062 6.703125 -5.320312 6.703125 -4.5625 C 6.703125 -4.019531 6.566406 -3.554688 6.296875 -3.171875 C 6.035156 -2.796875 5.65625 -2.519531 5.15625 -2.34375 L 6.8125 0 Z M 3.75 -2.984375 C 4.382812 -2.984375 4.867188 -3.117188 5.203125 -3.390625 C 5.535156 -3.660156 5.703125 -4.050781 5.703125 -4.5625 C 5.703125 -5.0625 5.535156 -5.445312 5.203125 -5.71875 C 4.867188 -5.988281 4.382812 -6.125 3.75 -6.125 L 2.046875 -6.125 L 2.046875 -2.984375 Z M 3.75 -2.984375 "/></g></g></g><g fill="#201d1d" fill-opacity="1"><g transform="translate(133.992033, 251.549998)"><g><path d="M 1.046875 -7 L 2.046875 -7 L 2.046875 0 L 1.046875 0 Z M 1.046875 -7 "/></g></g></g><g fill="#201d1d" fill-opacity="1"><g transform="translate(138.190813, 251.549998)"><g><path d="M 1.046875 -7 L 4 -7 C 4.738281 -7 5.394531 -6.851562 5.96875 -6.5625 C 6.539062 -6.269531 6.984375 -5.859375 7.296875 -5.328125 C 7.617188 -4.796875 7.78125 -4.1875 7.78125 -3.5 C 7.78125 -2.8125 7.617188 -2.203125 7.296875 -1.671875 C 6.984375 -1.140625 6.539062 -0.726562 5.96875 -0.4375 C 5.394531 -0.144531 4.738281 0 4 0 L 1.046875 0 Z M 3.9375 -0.875 C 4.507812 -0.875 5.007812 -0.984375 5.4375 -1.203125 C 5.863281 -1.421875 6.191406 -1.726562 6.421875 -2.125 C 6.660156 -2.519531 6.78125 -2.976562 6.78125 -3.5 C 6.78125 -4.019531 6.660156 -4.476562 6.421875 -4.875 C 6.191406 -5.269531 5.863281 -5.578125 5.4375 -5.796875 C 5.007812 -6.015625 4.507812 -6.125 3.9375 -6.125 L 2.046875 -6.125 L 2.046875 -0.875 Z M 3.9375 -0.875 "/></g></g></g><g fill="#201d1d" fill-opacity="1"><g transform="translate(147.547556, 251.549998)"><g><path d="M 6.125 -0.875 L 6.125 0 L 1.046875 0 L 1.046875 -7 L 5.984375 -7 L 5.984375 -6.125 L 2.046875 -6.125 L 2.046875 -3.984375 L 5.5625 -3.984375 L 5.5625 -3.125 L 2.046875 -3.125 L 2.046875 -0.875 Z M 6.125 -0.875 "/></g></g></g><g fill="#201d1d" fill-opacity="1"><g transform="translate(155.344919, 251.549998)"><g><path d="M 3.09375 0.078125 C 2.5625 0.078125 2.050781 0 1.5625 -0.15625 C 1.070312 -0.320312 0.6875 -0.535156 0.40625 -0.796875 L 0.78125 -1.578125 C 1.050781 -1.335938 1.394531 -1.140625 1.8125 -0.984375 C 2.226562 -0.835938 2.65625 -0.765625 3.09375 -0.765625 C 3.664062 -0.765625 4.09375 -0.863281 4.375 -1.0625 C 4.664062 -1.257812 4.8125 -1.519531 4.8125 -1.84375 C 4.8125 -2.082031 4.734375 -2.273438 4.578125 -2.421875 C 4.421875 -2.578125 4.226562 -2.695312 4 -2.78125 C 3.769531 -2.863281 3.445312 -2.953125 3.03125 -3.046875 C 2.5 -3.171875 2.070312 -3.296875 1.75 -3.421875 C 1.425781 -3.554688 1.148438 -3.753906 0.921875 -4.015625 C 0.691406 -4.273438 0.578125 -4.628906 0.578125 -5.078125 C 0.578125 -5.453125 0.675781 -5.789062 0.875 -6.09375 C 1.070312 -6.394531 1.367188 -6.632812 1.765625 -6.8125 C 2.171875 -6.988281 2.671875 -7.078125 3.265625 -7.078125 C 3.671875 -7.078125 4.070312 -7.023438 4.46875 -6.921875 C 4.875 -6.816406 5.222656 -6.660156 5.515625 -6.453125 L 5.1875 -5.65625 C 4.882812 -5.84375 4.566406 -5.984375 4.234375 -6.078125 C 3.898438 -6.179688 3.578125 -6.234375 3.265625 -6.234375 C 2.691406 -6.234375 2.265625 -6.128906 1.984375 -5.921875 C 1.703125 -5.710938 1.5625 -5.445312 1.5625 -5.125 C 1.5625 -4.882812 1.640625 -4.6875 1.796875 -4.53125 C 1.960938 -4.382812 2.160156 -4.269531 2.390625 -4.1875 C 2.628906 -4.101562 2.953125 -4.015625 3.359375 -3.921875 C 3.890625 -3.796875 4.3125 -3.664062 4.625 -3.53125 C 4.945312 -3.40625 5.222656 -3.210938 5.453125 -2.953125 C 5.679688 -2.691406 5.796875 -2.34375 5.796875 -1.90625 C 5.796875 -1.539062 5.695312 -1.207031 5.5 -0.90625 C 5.300781 -0.601562 5 -0.363281 4.59375 -0.1875 C 4.1875 -0.0078125 3.6875 0.078125 3.09375 0.078125 Z M 3.09375 0.078125 "/></g></g></g><g fill="#201d1d" fill-opacity="1"><g transform="translate(162.652475, 251.549998)"><g><path d="M 1.15625 -1.3125 C 1.34375 -1.3125 1.492188 -1.242188 1.609375 -1.109375 C 1.734375 -0.984375 1.796875 -0.820312 1.796875 -0.625 C 1.796875 -0.53125 1.785156 -0.4375 1.765625 -0.34375 C 1.742188 -0.25 1.695312 -0.101562 1.625 0.09375 L 1.15625 1.484375 L 0.53125 1.484375 L 0.90625 -0.015625 C 0.769531 -0.0546875 0.664062 -0.128906 0.59375 -0.234375 C 0.519531 -0.347656 0.484375 -0.476562 0.484375 -0.625 C 0.484375 -0.832031 0.546875 -1 0.671875 -1.125 C 0.796875 -1.25 0.957031 -1.3125 1.15625 -1.3125 Z M 1.15625 -1.3125 "/></g></g></g><g fill="#201d1d" fill-opacity="1"><g transform="translate(166.021581, 251.549998)"><g/></g></g><g fill="#201d1d" fill-opacity="1"><g transform="translate(169.810525, 251.549998)"><g><path d="M 3.09375 0.078125 C 2.5625 0.078125 2.050781 0 1.5625 -0.15625 C 1.070312 -0.320312 0.6875 -0.535156 0.40625 -0.796875 L 0.78125 -1.578125 C 1.050781 -1.335938 1.394531 -1.140625 1.8125 -0.984375 C 2.226562 -0.835938 2.65625 -0.765625 3.09375 -0.765625 C 3.664062 -0.765625 4.09375 -0.863281 4.375 -1.0625 C 4.664062 -1.257812 4.8125 -1.519531 4.8125 -1.84375 C 4.8125 -2.082031 4.734375 -2.273438 4.578125 -2.421875 C 4.421875 -2.578125 4.226562 -2.695312 4 -2.78125 C 3.769531 -2.863281 3.445312 -2.953125 3.03125 -3.046875 C 2.5 -3.171875 2.070312 -3.296875 1.75 -3.421875 C 1.425781 -3.554688 1.148438 -3.753906 0.921875 -4.015625 C 0.691406 -4.273438 0.578125 -4.628906 0.578125 -5.078125 C 0.578125 -5.453125 0.675781 -5.789062 0.875 -6.09375 C 1.070312 -6.394531 1.367188 -6.632812 1.765625 -6.8125 C 2.171875 -6.988281 2.671875 -7.078125 3.265625 -7.078125 C 3.671875 -7.078125 4.070312 -7.023438 4.46875 -6.921875 C 4.875 -6.816406 5.222656 -6.660156 5.515625 -6.453125 L 5.1875 -5.65625 C 4.882812 -5.84375 4.566406 -5.984375 4.234375 -6.078125 C 3.898438 -6.179688 3.578125 -6.234375 3.265625 -6.234375 C 2.691406 -6.234375 2.265625 -6.128906 1.984375 -5.921875 C 1.703125 -5.710938 1.5625 -5.445312 1.5625 -5.125 C 1.5625 -4.882812 1.640625 -4.6875 1.796875 -4.53125 C 1.960938 -4.382812 2.160156 -4.269531 2.390625 -4.1875 C 2.628906 -4.101562 2.953125 -4.015625 3.359375 -3.921875 C 3.890625 -3.796875 4.3125 -3.664062 4.625 -3.53125 C 4.945312 -3.40625 5.222656 -3.210938 5.453125 -2.953125 C 5.679688 -2.691406 5.796875 -2.34375 5.796875 -1.90625 C 5.796875 -1.539062 5.695312 -1.207031 5.5 -0.90625 C 5.300781 -0.601562 5 -0.363281 4.59375 -0.1875 C 4.1875 -0.0078125 3.6875 0.078125 3.09375 0.078125 Z M 3.09375 0.078125 "/></g></g></g><g fill="#201d1d" fill-opacity="1"><g transform="translate(177.118081, 251.549998)"><g><path d="M 7.546875 0 L 7.53125 -5.09375 L 5 -0.84375 L 4.546875 -0.84375 L 2.015625 -5.0625 L 2.015625 0 L 1.046875 0 L 1.046875 -7 L 1.875 -7 L 4.796875 -2.078125 L 7.671875 -7 L 8.484375 -7 L 8.5 0 Z M 7.546875 0 "/></g></g></g><g fill="#201d1d" fill-opacity="1"><g transform="translate(187.764318, 251.549998)"><g><path d="M 5.515625 -1.75 L 1.796875 -1.75 L 1.015625 0 L -0.015625 0 L 3.15625 -7 L 4.15625 -7 L 7.328125 0 L 6.28125 0 Z M 5.15625 -2.546875 L 3.65625 -5.984375 L 2.140625 -2.546875 Z M 5.15625 -2.546875 "/></g></g></g><g fill="#201d1d" fill-opacity="1"><g transform="translate(196.181436, 251.549998)"><g><path d="M 5.734375 0 L 4.21875 -2.15625 C 4.03125 -2.132812 3.882812 -2.125 3.78125 -2.125 L 2.046875 -2.125 L 2.046875 0 L 1.046875 0 L 1.046875 -7 L 3.78125 -7 C 4.6875 -7 5.398438 -6.78125 5.921875 -6.34375 C 6.441406 -5.914062 6.703125 -5.320312 6.703125 -4.5625 C 6.703125 -4.019531 6.566406 -3.554688 6.296875 -3.171875 C 6.035156 -2.796875 5.65625 -2.519531 5.15625 -2.34375 L 6.8125 0 Z M 3.75 -2.984375 C 4.382812 -2.984375 4.867188 -3.117188 5.203125 -3.390625 C 5.535156 -3.660156 5.703125 -4.050781 5.703125 -4.5625 C 5.703125 -5.0625 5.535156 -5.445312 5.203125 -5.71875 C 4.867188 -5.988281 4.382812 -6.125 3.75 -6.125 L 2.046875 -6.125 L 2.046875 -2.984375 Z M 3.75 -2.984375 "/></g></g></g><g fill="#201d1d" fill-opacity="1"><g transform="translate(204.548577, 251.549998)"><g><path d="M 2.4375 -6.125 L 0.046875 -6.125 L 0.046875 -7 L 5.828125 -7 L 5.828125 -6.125 L 3.4375 -6.125 L 3.4375 0 L 2.4375 0 Z M 2.4375 -6.125 "/></g></g></g><g fill="#201d1d" fill-opacity="1"><g transform="translate(211.516266, 251.549998)"><g><path d="M 6.125 -0.875 L 6.125 0 L 1.046875 0 L 1.046875 -7 L 5.984375 -7 L 5.984375 -6.125 L 2.046875 -6.125 L 2.046875 -3.984375 L 5.5625 -3.984375 L 5.5625 -3.125 L 2.046875 -3.125 L 2.046875 -0.875 Z M 6.125 -0.875 "/></g></g></g><g fill="#201d1d" fill-opacity="1"><g transform="translate(219.313629, 251.549998)"><g><path d="M 5.734375 0 L 4.21875 -2.15625 C 4.03125 -2.132812 3.882812 -2.125 3.78125 -2.125 L 2.046875 -2.125 L 2.046875 0 L 1.046875 0 L 1.046875 -7 L 3.78125 -7 C 4.6875 -7 5.398438 -6.78125 5.921875 -6.34375 C 6.441406 -5.914062 6.703125 -5.320312 6.703125 -4.5625 C 6.703125 -4.019531 6.566406 -3.554688 6.296875 -3.171875 C 6.035156 -2.796875 5.65625 -2.519531 5.15625 -2.34375 L 6.8125 0 Z M 3.75 -2.984375 C 4.382812 -2.984375 4.867188 -3.117188 5.203125 -3.390625 C 5.535156 -3.660156 5.703125 -4.050781 5.703125 -4.5625 C 5.703125 -5.0625 5.535156 -5.445312 5.203125 -5.71875 C 4.867188 -5.988281 4.382812 -6.125 3.75 -6.125 L 2.046875 -6.125 L 2.046875 -2.984375 Z M 3.75 -2.984375 "/></g></g></g><g fill="#201d1d" fill-opacity="1"><g transform="translate(227.68077, 251.549998)"><g/></g></g><g fill="#201d1d" fill-opacity="1"><g transform="translate(231.469714, 251.549998)"><g><path d="M 3.78125 -7 C 4.6875 -7 5.398438 -6.78125 5.921875 -6.34375 C 6.441406 -5.914062 6.703125 -5.320312 6.703125 -4.5625 C 6.703125 -3.800781 6.441406 -3.203125 5.921875 -2.765625 C 5.398438 -2.335938 4.6875 -2.125 3.78125 -2.125 L 2.046875 -2.125 L 2.046875 0 L 1.046875 0 L 1.046875 -7 Z M 3.75 -2.984375 C 4.382812 -2.984375 4.867188 -3.117188 5.203125 -3.390625 C 5.535156 -3.660156 5.703125 -4.050781 5.703125 -4.5625 C 5.703125 -5.0625 5.535156 -5.445312 5.203125 -5.71875 C 4.867188 -5.988281 4.382812 -6.125 3.75 -6.125 L 2.046875 -6.125 L 2.046875 -2.984375 Z M 3.75 -2.984375 "/></g></g></g><g fill="#201d1d" fill-opacity="1"><g transform="translate(239.786867, 251.549998)"><g><path d="M 1.046875 -7 L 2.046875 -7 L 2.046875 0 L 1.046875 0 Z M 1.046875 -7 "/></g></g></g><g fill="#201d1d" fill-opacity="1"><g transform="translate(243.985647, 251.549998)"><g><path d="M 4.1875 0.078125 C 3.476562 0.078125 2.84375 -0.0703125 2.28125 -0.375 C 1.71875 -0.6875 1.273438 -1.113281 0.953125 -1.65625 C 0.640625 -2.207031 0.484375 -2.820312 0.484375 -3.5 C 0.484375 -4.175781 0.640625 -4.785156 0.953125 -5.328125 C 1.273438 -5.878906 1.71875 -6.304688 2.28125 -6.609375 C 2.851562 -6.921875 3.488281 -7.078125 4.1875 -7.078125 C 4.738281 -7.078125 5.238281 -6.984375 5.6875 -6.796875 C 6.144531 -6.617188 6.53125 -6.347656 6.84375 -5.984375 L 6.203125 -5.359375 C 5.671875 -5.910156 5.015625 -6.1875 4.234375 -6.1875 C 3.710938 -6.1875 3.238281 -6.066406 2.8125 -5.828125 C 2.394531 -5.597656 2.066406 -5.28125 1.828125 -4.875 C 1.597656 -4.46875 1.484375 -4.007812 1.484375 -3.5 C 1.484375 -2.988281 1.597656 -2.53125 1.828125 -2.125 C 2.066406 -1.71875 2.394531 -1.394531 2.8125 -1.15625 C 3.238281 -0.925781 3.710938 -0.8125 4.234375 -0.8125 C 5.015625 -0.8125 5.671875 -1.09375 6.203125 -1.65625 L 6.84375 -1.015625 C 6.53125 -0.660156 6.144531 -0.390625 5.6875 -0.203125 C 5.226562 -0.015625 4.726562 0.078125 4.1875 0.078125 Z M 4.1875 0.078125 "/></g></g></g><g fill="#201d1d" fill-opacity="1"><g transform="translate(252.312803, 251.549998)"><g><path d="M 3.328125 -3.109375 L 2.046875 -1.8125 L 2.046875 0 L 1.046875 0 L 1.046875 -7 L 2.046875 -7 L 2.046875 -3.09375 L 5.84375 -7 L 6.984375 -7 L 4 -3.84375 L 7.1875 0 L 6.015625 0 Z M 3.328125 -3.109375 "/></g></g></g><g fill="#201d1d" fill-opacity="1"><g transform="translate(260.599973, 251.549998)"><g><path d="M 3.953125 0.078125 C 3.015625 0.078125 2.285156 -0.1875 1.765625 -0.71875 C 1.242188 -1.25 0.984375 -2.015625 0.984375 -3.015625 L 0.984375 -7 L 1.984375 -7 L 1.984375 -3.0625 C 1.984375 -1.5625 2.640625 -0.8125 3.953125 -0.8125 C 4.597656 -0.8125 5.085938 -0.992188 5.421875 -1.359375 C 5.765625 -1.734375 5.9375 -2.300781 5.9375 -3.0625 L 5.9375 -7 L 6.90625 -7 L 6.90625 -3.015625 C 6.90625 -2.015625 6.644531 -1.25 6.125 -0.71875 C 5.601562 -0.1875 4.878906 0.078125 3.953125 0.078125 Z M 3.953125 0.078125 "/></g></g></g><g fill="#201d1d" fill-opacity="1"><g transform="translate(269.606861, 251.549998)"><g><path d="M 3.78125 -7 C 4.6875 -7 5.398438 -6.78125 5.921875 -6.34375 C 6.441406 -5.914062 6.703125 -5.320312 6.703125 -4.5625 C 6.703125 -3.800781 6.441406 -3.203125 5.921875 -2.765625 C 5.398438 -2.335938 4.6875 -2.125 3.78125 -2.125 L 2.046875 -2.125 L 2.046875 0 L 1.046875 0 L 1.046875 -7 Z M 3.75 -2.984375 C 4.382812 -2.984375 4.867188 -3.117188 5.203125 -3.390625 C 5.535156 -3.660156 5.703125 -4.050781 5.703125 -4.5625 C 5.703125 -5.0625 5.535156 -5.445312 5.203125 -5.71875 C 4.867188 -5.988281 4.382812 -6.125 3.75 -6.125 L 2.046875 -6.125 L 2.046875 -2.984375 Z M 3.75 -2.984375 "/></g></g></g><g fill="#201d1d" fill-opacity="1"><g transform="translate(277.924015, 251.549998)"><g><path d="M 3.09375 0.078125 C 2.5625 0.078125 2.050781 0 1.5625 -0.15625 C 1.070312 -0.320312 0.6875 -0.535156 0.40625 -0.796875 L 0.78125 -1.578125 C 1.050781 -1.335938 1.394531 -1.140625 1.8125 -0.984375 C 2.226562 -0.835938 2.65625 -0.765625 3.09375 -0.765625 C 3.664062 -0.765625 4.09375 -0.863281 4.375 -1.0625 C 4.664062 -1.257812 4.8125 -1.519531 4.8125 -1.84375 C 4.8125 -2.082031 4.734375 -2.273438 4.578125 -2.421875 C 4.421875 -2.578125 4.226562 -2.695312 4 -2.78125 C 3.769531 -2.863281 3.445312 -2.953125 3.03125 -3.046875 C 2.5 -3.171875 2.070312 -3.296875 1.75 -3.421875 C 1.425781 -3.554688 1.148438 -3.753906 0.921875 -4.015625 C 0.691406 -4.273438 0.578125 -4.628906 0.578125 -5.078125 C 0.578125 -5.453125 0.675781 -5.789062 0.875 -6.09375 C 1.070312 -6.394531 1.367188 -6.632812 1.765625 -6.8125 C 2.171875 -6.988281 2.671875 -7.078125 3.265625 -7.078125 C 3.671875 -7.078125 4.070312 -7.023438 4.46875 -6.921875 C 4.875 -6.816406 5.222656 -6.660156 5.515625 -6.453125 L 5.1875 -5.65625 C 4.882812 -5.84375 4.566406 -5.984375 4.234375 -6.078125 C 3.898438 -6.179688 3.578125 -6.234375 3.265625 -6.234375 C 2.691406 -6.234375 2.265625 -6.128906 1.984375 -5.921875 C 1.703125 -5.710938 1.5625 -5.445312 1.5625 -5.125 C 1.5625 -4.882812 1.640625 -4.6875 1.796875 -4.53125 C 1.960938 -4.382812 2.160156 -4.269531 2.390625 -4.1875 C 2.628906 -4.101562 2.953125 -4.015625 3.359375 -3.921875 C 3.890625 -3.796875 4.3125 -3.664062 4.625 -3.53125 C 4.945312 -3.40625 5.222656 -3.210938 5.453125 -2.953125 C 5.679688 -2.691406 5.796875 -2.34375 5.796875 -1.90625 C 5.796875 -1.539062 5.695312 -1.207031 5.5 -0.90625 C 5.300781 -0.601562 5 -0.363281 4.59375 -0.1875 C 4.1875 -0.0078125 3.6875 0.078125 3.09375 0.078125 Z M 3.09375 0.078125 "/></g></g></g></svg>